{
  "accessors": [
    {
      "bufferView": 2,
      "componentType": 5126,
      "count": 65532,
      "max": [
        1.5900001525878906,
        1.1550503969192505,
        0.7900001406669617
      ],
      "min": [
        -1.5900001525878906,
        5.0204813305754215e-05,
        -0.7900001406669617
      ],
      "type": "VEC3"
    },
    {
      "bufferView": 2,
      "byteOffset": 786384,
      "componentType": 5126,
      "count": 65532,
      "max": [
        1.0,
        1.0,
        1.0
      ],
      "min": [
        -1.0,
        -1.0,
        -1.0
      ],
      "type": "VEC3"
    },
    {
      "bufferView": 1,
      "componentType": 5126,
      "count": 65532,
      "max": [
        0.9997497200965881,
        0.9765051007270813
      ],
      "min": [
        0.00025027955416589975,
        0.2750664949417114
      ],
      "type": "VEC2"
    },
    {
      "bufferView": 0,
      "componentType": 5125,
      "count": 365583,
      "type": "SCALAR"
    },
    {
      "bufferView": 2,
      "byteOffset": 1572768,
      "componentType": 5126,
      "count": 65532,
      "max": [
        1.534999966621399,
        1.1550503969192505,
        0.699999988079071
      ],
      "min": [
        -1.5900001525878906,
        5.0204813305754215e-05,
        -0.7900001406669617
      ],
      "type": "VEC3"
    },
    {
      "bufferView": 2,
      "byteOffset": 2359152,
      "componentType": 5126,
      "count": 65532,
      "max": [
        1.0,
        1.0,
        1.0
      ],
      "min": [
        -1.0,
        -1.0,
        -1.0
      ],
      "type": "VEC3"
    },
    {
      "bufferView": 1,
      "byteOffset": 524256,
      "componentType": 5126,
      "count": 65532,
      "max": [
        0.9999999403953552,
        0.9658340215682983
      ],
      "min": [
        5.4132627269609657e-08,
        0.12755000591278076
      ],
      "type": "VEC2"
    },
    {
      "bufferView": 0,
      "byteOffset": 1462332,
      "componentType": 5125,
      "count": 360939,
      "type": "SCALAR"
    },
    {
      "bufferView": 2,
      "byteOffset": 3145536,
      "componentType": 5126,
      "count": 37900,
      "max": [
        1.5900001525878906,
        1.1550503969192505,
        0.7900001406669617
      ],
      "min": [
        -1.5900001525878906,
        5.0204838771605864e-05,
        -0.7900001406669617
      ],
      "type": "VEC3"
    },
    {
      "bufferView": 2,
      "byteOffset": 3600336,
      "componentType": 5126,
      "count": 37900,
      "max": [
        1.0,
        1.0,
        1.0
      ],
      "min": [
        -1.0,
        -1.0,
        -1.0
      ],
      "type": "VEC3"
    },
    {
      "bufferView": 1,
      "byteOffset": 1048512,
      "componentType": 5126,
      "count": 37900,
      "max": [
        0.9999998211860657,
        0.8290667533874512
      ],
      "min": [
        1.8749092589587235e-07,
        0.12755000591278076
      ],
      "type": "VEC2"
    },
    {
      "bufferView": 0,
      "byteOffset": 2906088,
      "componentType": 5125,
      "count": 181098,
      "type": "SCALAR"
    }
  ],
  "asset": {
    "extras": {
      "author": "Martti Hänninen (https://sketchfab.com/marttihan)",
      "license": "CC-BY-4.0 (http://creativecommons.org/licenses/by/4.0/)",
      "source": "https://sketchfab.com/3d-models/lego-efa8ae3ec72c4afabcaebdf7aa723f3d",
      "title": "Lego"
    },
    "generator": "Sketchfab-12.60.0",
    "version": "2.0"
  },
  "bufferViews": [
    {
      "buffer": 0,
      "byteLength": 3630480,
      "name": "floatBufferViews",
      "target": 34963
    },
    {
      "buffer": 0,
      "byteLength": 1351712,
      "byteOffset": 3630480,
      "byteStride": 8,
      "name": "floatBufferViews",
      "target": 34962
    },
    {
      "buffer": 0,
      "byteLength": 4055136,
      "byteOffset": 4982192,
      "byteStride": 12,
      "name": "floatBufferViews",
      "target": 34962
    }
  ],
  "buffers": [
    {
      "byteLength": 9037328,
      "uri": "scene.bin"
    }
  ],
  "materials": [
    {
      "doubleSided": true,
      "name": "material",
      "pbrMetallicRoughness": {
        "baseColorFactor": [
          0.3921895658718546,
          0.0018063290375030308,
          0.0018063290375030308,
          1.0
        ],
        "metallicFactor": 0.0,
        "roughnessFactor": 0.4030014774820787
      }
    }
  ],
  "meshes": [
    {
      "name": "Lego_Mat_0",
      "primitives": [
        {
          "attributes": {
            "NORMAL": 1,
            "POSITION": 0,
            "TEXCOORD_0": 2
          },
          "indices": 3,
          "material": 0,
          "mode": 4
        }
      ]
    },
    {
      "name": "Lego_Mat_0",
      "primitives": [
        {
          "attributes": {
            "NORMAL": 5,
            "POSITION": 4,
            "TEXCOORD_0": 6
          },
          "indices": 7,
          "material": 0,
          "mode": 4
        }
      ]
    },
    {
      "name": "Lego_Mat_0",
      "primitives": [
        {
          "attributes": {
            "NORMAL": 9,
            "POSITION": 8,
            "TEXCOORD_0": 10
          },
          "indices": 11,
          "material": 0,
          "mode": 4
        }
      ]
    }
  ],
  "nodes": [
    {
      "children": [
        1
      ],
      "matrix": [
        1.0,
        0.0,
        0.0,
        0.0,
        0.0,
        2.220446049250313e-16,
        -1.0,
        0.0,
        0.0,
        1.0,
        2.220446049250313e-16,
        0.0,
        0.0,
        0.0,
        0.0,
        1.0
      ],
      "name": "Sketchfab_model"
    },
    {
      "children": [
        2
      ],
      "matrix": [
        1.0,
        0.0,
        0.0,
        0.0,
        0.0,
        0.0,
        1.0,
        0.0,
        0.0,
        -1.0,
        0.0,
        0.0,
        0.0,
        0.0,
        0.0,
        1.0
      ],
      "name": "f8d24dd1e26045ae9a4e559e5ea45ef2.fbx"
    },
    {
      "children": [
        3
      ],
      "name": "RootNode"
    },
    {
      "children": [
        4,
        5,
        6
      ],
      "name": "Lego"
    },
    {
      "mesh": 0,
      "name": "Lego_Mat_0"
    },
    {
      "mesh": 1,
      "name": "Lego_Mat_0"
    },
    {
      "mesh": 2,
      "name": "Lego_Mat_0"
    }
  ],
  "scene": 0,
  "scenes": [
    {
      "name": "Sketchfab_Scene",
      "nodes": [
        0
      ]
    }
  ]
}
